HIERARCHY
ROOT Hips
{
	OFFSET 0.00000 0.00000 0.00000
	CHANNELS 6 Xposition Yposition Zposition Zrotation Yrotation Xrotation 
	JOINT LHipJoint
	{
		OFFSET 0 0 0
		CHANNELS 3 Zrotation Yrotation Xrotation
		JOINT LeftHip
		{
			OFFSET 1.62329 -1.80800 0.67318
			CHANNELS 3 Zrotation Yrotation Xrotation
			JOINT LeftKnee
			{
				OFFSET 2.57139 -7.06484 0.00000
				CHANNELS 3 Zrotation Yrotation Xrotation
				JOINT LeftAnkle
				{
					OFFSET 2.52017 -6.92413 0.00000
					CHANNELS 3 Zrotation Yrotation Xrotation
					JOINT LeftToe
					{
						OFFSET 0.23295 -0.64001 2.10214
						CHANNELS 3 Zrotation Yrotation Xrotation
						End Site
						{
							OFFSET 0.00000 -0.00000 1.10139
						}
					}
				}
			}
		}
	}
	JOINT RHipJoint
	{
		OFFSET 0 0 0
		CHANNELS 3 Zrotation Yrotation Xrotation
		JOINT RightHip
		{
			OFFSET -1.48061 -1.80800 0.67318
			CHANNELS 3 Zrotation Yrotation Xrotation
			JOINT RightKnee
			{
				OFFSET -2.63258 -7.23296 0.00000
				CHANNELS 3 Zrotation Yrotation Xrotation
				JOINT RightAnkle
				{
					OFFSET -2.54779 -7.00000 0.00000
					CHANNELS 3 Zrotation Yrotation Xrotation
					JOINT RightToe
					{
						OFFSET -0.23067 -0.63376 2.12161
						CHANNELS 3 Zrotation Yrotation Xrotation
						End Site
						{
							OFFSET -0.00000 -0.00000 1.11000
						}
					}
				}
			}
		}
	}
	JOINT lowerback
	{
		OFFSET 0 0 0
		CHANNELS 3 Zrotation Yrotation Xrotation
		JOINT Chest
		{
			OFFSET -0.02108 2.07573 -0.16981
			CHANNELS 3 Zrotation Yrotation Xrotation
			JOINT Chest2
			{
				OFFSET 0.05070 2.08439 -0.03141
				CHANNELS 3 Zrotation Yrotation Xrotation
				JOINT lowerneck
				{
					OFFSET 0 0 0
					CHANNELS 3 Zrotation Yrotation Xrotation
					JOINT Neck
					{
						OFFSET -0.10731 1.60408 0.31370
						CHANNELS 3 Zrotation Yrotation Xrotation
						JOINT Head
						{
							OFFSET 0.08411 1.65679 -0.30822
							CHANNELS 3 Zrotation Yrotation Xrotation
							End Site
							{
								OFFSET 0.03911 1.69149 -0.14146
							}
						}
					}
				}
				JOINT LeftCollar
				{
					OFFSET 0 0 0
					CHANNELS 3 Zrotation Yrotation Xrotation
					JOINT LeftShoulder
					{
						OFFSET 3.52315 0.73219 -0.54694
CHANNELS 3 Zrotation Xrotation Yrotation
						JOINT LeftElbow
						{
OFFSET 0 -5.324620 -0.000000
CHANNELS 3 Zrotation Xrotation Yrotation
							JOINT LeftWrist
							{
OFFSET 0 -3.484020 -0.000000
CHANNELS 3 Zrotation Xrotation Yrotation
								JOINT lhand
								{
									OFFSET 0 0 0
CHANNELS 3 Zrotation Xrotation Yrotation
									JOINT LFingers
									{
OFFSET 0 -0.572480 -0.000000
CHANNELS 3 Zrotation Xrotation Yrotation
										End Site
										{
OFFSET 0 -0.461540 -0.000000
										}
									}
								}
								JOINT LThumb
								{
OFFSET 0 0.000000 0.000000
CHANNELS 3 Zrotation Xrotation Yrotation
									End Site
									{
OFFSET 0 -0.468590 0.468590
									}
								}
							}
						}
					}
				}
				JOINT RightCollar
				{
					OFFSET 0 0 0
					CHANNELS 3 Zrotation Yrotation Xrotation
					JOINT RightShoulder
					{
						OFFSET -3.41766 0.93592 -0.10019
CHANNELS 3 Zrotation Xrotation Yrotation
						JOINT RightElbow
						{
OFFSET 0 -5.335890 -0.000000
CHANNELS 3 Zrotation Xrotation Yrotation
							JOINT RightWrist
							{
OFFSET 0 -3.641340 -0.000000
CHANNELS 3 Zrotation Xrotation Yrotation
								JOINT rhand
								{
									OFFSET 0 0 0
CHANNELS 3 Zrotation Xrotation Yrotation
									JOINT RFingers
									{
OFFSET 0 -0.734810 -0.000000
CHANNELS 3 Zrotation Xrotation Yrotation
										End Site
										{
OFFSET 0 -0.592420 -0.000000
										}
									}
								}
								JOINT RThumb
								{
OFFSET 0 0.000000 0.000000
CHANNELS 3 Zrotation Xrotation Yrotation
									End Site
									{
OFFSET 0 -0.601470 0.601470
									}
								}
							}
						}
					}
				}
			}
		}
	}
}
MOTION
Frames: 12
Frame Time: 0.008333333333333333
-0.137913 17.930757 -0.403458 2.601308 -10.362833 2.789684 0.000000 0.000000 0.000000 -23.284208 -0.918381 3.760354 0.203939 2.907589 8.021645 0.296239 2.575641 -11.557497 0.453698 -4.320922 -11.981495 0.000000 0.000000 0.000000 13.899448 10.855115 -4.451232 -1.968114 -8.799313 25.169639 -1.010686 3.625394 -18.132294 -0.051798 -1.468777 4.039521 -4.710365 -1.753040 -0.880008 2.977657 -2.316316 -1.926169 5.728862 -1.080635 -1.183522 -8.213243 -0.946653 -33.163637 6.590837 1.130893 1.951137 3.648933 1.017802 5.426870 0.000000 0.000000 0.000000 106.483444 -60.926658 45.862243 108.022345 -58.736434 75.541579 49.281791 33.553969 -14.038932 0.000000 0.000000 0.000000 -7.125000 0.000000 0.000000 21.953876 49.632201 -2.620112 0.000000 0.000000 0.000000 -8.204588 3.603064 23.903423 -15.725400 -25.146961 -3.528459 -18.400307 17.633400 -8.067544 0.000000 0.000000 0.000000 7.125000 0.000000 0.000000 6.121575 21.502896 3.471091
-0.138769 17.930756 -0.402436 2.617184 -10.381820 2.793139 0.000000 0.000000 0.000000 -23.299830 -0.909427 3.731807 0.206418 2.925256 8.070797 0.299287 2.574525 -11.607784 0.459738 -4.349510 -12.062169 0.000000 0.000000 0.000000 13.883667 10.871955 -4.449710 -1.968287 -8.799718 25.170854 -1.008961 3.629234 -18.115817 -0.052656 -1.480649 4.072334 -4.713808 -1.741732 -0.894935 2.954777 -2.300744 -1.916391 5.706186 -1.073594 -1.167862 -8.228697 -0.964149 -33.155313 6.622794 1.111559 1.886574 3.658938 1.011639 5.405857 0.000000 0.000000 0.000000 106.590962 -60.917704 45.948071 107.979160 -58.742644 75.504632 49.435483 33.398849 -13.875226 0.000000 0.000000 0.000000 -7.125000 0.000000 0.000000 22.065787 49.447975 -2.530740 0.000000 0.000000 0.000000 -8.175424 3.594887 23.876782 -15.747100 -25.176578 -3.537657 -18.362875 17.665183 -8.152452 0.000000 0.000000 0.000000 7.125000 0.000000 0.000000 6.147859 21.416160 3.498254
-0.139364 17.930873 -0.400795 2.615928 -10.401138 2.795288 0.000000 0.000000 0.000000 -23.297901 -0.897369 3.707961 0.208952 2.943035 8.120220 0.302238 2.568104 -11.651930 0.456930 -4.336353 -12.024826 0.000000 0.000000 0.000000 13.885161 10.882478 -4.443464 -1.967754 -8.798507 25.167153 -1.005683 3.612787 -18.087578 -0.052608 -1.479644 4.069676 -4.700880 -1.727046 -0.901566 2.928719 -2.281116 -1.926259 5.671636 -1.063441 -1.178432 -8.170374 -0.968627 -33.113099 6.584916 1.085192 1.845682 3.632451 0.995906 5.389336 0.000000 0.000000 0.000000 106.639658 -60.927216 45.931756 107.940209 -58.748264 75.471373 49.563712 33.027389 -13.632588 0.000000 0.000000 0.000000 -7.125000 0.000000 0.000000 22.120595 49.150050 -2.369185 0.000000 0.000000 0.000000 -8.139168 3.623920 23.853833 -15.769650 -25.207340 -3.547254 -18.203616 17.773025 -8.091321 0.000000 0.000000 0.000000 7.125000 0.000000 0.000000 6.263871 21.488423 3.554774
-0.140390 17.930702 -0.399513 2.624219 -10.403873 2.768363 0.000000 0.000000 0.000000 -23.306021 -0.891557 3.711466 0.211772 2.962609 8.174668 0.304973 2.559385 -11.692702 0.468982 -4.392254 -12.182956 0.000000 0.000000 0.000000 13.888666 10.891710 -4.399529 -1.966215 -8.795430 25.157494 -1.008077 3.606462 -18.111170 -0.051412 -1.463062 4.023947 -4.720112 -1.728585 -0.861392 2.915727 -2.284962 -1.940362 5.670610 -1.063697 -1.214844 -8.106524 -0.968798 -33.133699 6.537562 1.065789 1.897395 3.604671 0.982828 5.410790 0.000000 0.000000 0.000000 106.645642 -60.902343 45.882778 107.932773 -58.749290 75.464963 49.627477 32.863104 -13.599424 0.000000 0.000000 0.000000 -7.125000 0.000000 0.000000 22.178633 49.120390 -2.359098 0.000000 0.000000 0.000000 -8.139596 3.664009 23.849047 -15.784951 -25.228196 -3.553836 -17.965822 17.834995 -8.096450 0.000000 0.000000 0.000000 7.125000 0.000000 0.000000 6.436019 21.495432 3.652644
-0.141077 17.931800 -0.398230 2.580541 -10.392304 2.797724 0.000000 0.000000 0.000000 -23.253284 -0.916723 3.673496 0.213916 2.977612 8.216420 0.306862 2.548043 -11.715953 0.460890 -4.354712 -12.076752 0.000000 0.000000 0.000000 13.939146 10.903480 -4.407226 -1.964423 -8.791591 25.145635 -1.010216 3.576860 -18.135269 -0.052839 -1.483722 4.080887 -4.666299 -1.736472 -0.886477 2.921017 -2.294395 -1.944986 5.644700 -1.069286 -1.205974 -8.094389 -0.972778 -33.284730 6.551235 1.061791 2.061596 3.611087 0.983039 5.484553 0.000000 0.000000 0.000000 106.730341 -60.878147 45.967195 107.960208 -58.745407 75.488430 49.544644 32.745288 -13.576078 0.000000 0.000000 0.000000 -7.125000 0.000000 0.000000 22.079408 49.068554 -2.318288 0.000000 0.000000 0.000000 -8.140531 3.670071 23.828940 -15.798473 -25.246598 -3.559571 -17.905521 17.869203 -8.024132 0.000000 0.000000 0.000000 7.125000 0.000000 0.000000 6.480613 21.573878 3.666719
-0.142392 17.932912 -0.396948 2.532283 -10.394547 2.831357 0.000000 0.000000 0.000000 -23.195600 -0.922071 3.649562 0.214020 2.978337 8.218501 0.306008 2.548314 -11.702851 0.452879 -4.317229 -11.970956 0.000000 0.000000 0.000000 13.997803 10.938625 -4.415151 -1.963399 -8.789357 25.138592 -1.011091 3.539106 -18.148855 -0.053731 -1.495984 4.114719 -4.613448 -1.734955 -0.914659 2.921509 -2.291332 -1.959964 5.614477 -1.068056 -1.207876 -8.113756 -0.972659 -33.247312 6.591172 1.062923 2.031350 3.627095 0.986886 5.469923 0.000000 0.000000 0.000000 106.770802 -60.863142 46.011488 107.979293 -58.742667 75.504760 49.407497 32.530748 -13.445059 0.000000 0.000000 0.000000 -7.125000 0.000000 0.000000 21.883414 48.857684 -2.178099 0.000000 0.000000 0.000000 -8.109989 3.672783 23.746208 -15.777761 -25.218347 -3.550714 -17.958806 17.960212 -8.030282 0.000000 0.000000 0.000000 7.125000 0.000000 0.000000 6.441913 21.564751 3.645891
-0.143345 17.933078 -0.395221 2.514266 -10.416080 2.851461 0.000000 0.000000 0.000000 -23.176657 -0.901386 3.642800 0.213011 2.971440 8.199300 0.303999 2.564866 -11.679990 0.457160 -4.337333 -12.027762 0.000000 0.000000 0.000000 14.021457 10.968877 -4.421514 -1.962266 -8.786977 25.131219 -1.009243 3.508233 -18.135900 -0.053388 -1.490983 4.100962 -4.593321 -1.731810 -0.932650 2.918687 -2.286576 -1.979120 5.599931 -1.065154 -1.218962 -8.097550 -0.962516 -33.133976 6.566851 1.066535 1.925191 3.613831 0.985887 5.420364 0.000000 0.000000 0.000000 106.767046 -60.848204 46.042868 107.966065 -58.744524 75.493445 49.283785 32.573773 -13.418574 0.000000 0.000000 0.000000 -7.125000 0.000000 0.000000 21.739277 48.792314 -2.125614 0.000000 0.000000 0.000000 -8.112688 3.691012 23.775375 -15.777573 -25.218075 -3.550614 -17.987334 17.958152 -8.042892 0.000000 0.000000 0.000000 7.125000 0.000000 0.000000 6.421099 21.550186 3.636111
-0.143618 17.932695 -0.392557 2.532204 -10.430445 2.856545 0.000000 0.000000 0.000000 -23.204718 -0.880740 3.659093 0.211232 2.959249 8.165266 0.301198 2.588265 -11.647928 0.470603 -4.399571 -12.203693 0.000000 0.000000 0.000000 13.997832 10.957446 -4.428178 -1.961559 -8.785477 25.126589 -1.007436 3.517311 -18.117841 -0.051996 -1.471205 4.046394 -4.608574 -1.731902 -0.943641 2.911836 -2.286453 -1.999374 5.601518 -1.064011 -1.233458 -8.059723 -0.950347 -33.072687 6.509854 1.070237 1.889548 3.587563 0.982280 5.400608 0.000000 0.000000 0.000000 106.740058 -60.846553 46.067423 107.930248 -58.749657 75.462846 49.191838 32.714863 -13.424173 0.000000 0.000000 0.000000 -7.125000 0.000000 0.000000 21.641373 48.778268 -2.107462 0.000000 0.000000 0.000000 -8.136758 3.729764 23.845765 -15.808955 -25.260839 -3.564003 -17.921089 17.935814 -8.030096 0.000000 0.000000 0.000000 7.125000 0.000000 0.000000 6.469295 21.566870 3.661252
-0.143553 17.932267 -0.389112 2.569199 -10.425952 2.851468 0.000000 0.000000 0.000000 -23.257109 -0.871325 3.700401 0.208771 2.942037 8.117325 0.298900 2.600602 -11.617470 0.480101 -4.443202 -12.327054 0.000000 0.000000 0.000000 13.948020 10.909546 -4.431636 -1.961951 -8.786256 25.128973 -1.007412 3.561765 -18.111459 -0.050328 -1.447604 3.981285 -4.641552 -1.733669 -0.955609 2.898390 -2.288524 -2.013612 5.606062 -1.064149 -1.240592 -8.032456 -0.946091 -33.087247 6.483703 1.068133 1.933746 3.574822 0.979065 5.417311 0.000000 0.000000 0.000000 106.718909 -60.867408 46.082074 107.900157 -58.754006 75.437163 49.129014 32.791630 -13.414430 0.000000 0.000000 0.000000 -7.125000 0.000000 0.000000 21.569777 48.750314 -2.084371 0.000000 0.000000 0.000000 -8.143936 3.764849 23.846218 -15.847811 -25.313816 -3.580624 -17.830632 17.971516 -8.005665 0.000000 0.000000 0.000000 7.125000 0.000000 0.000000 6.535167 21.596870 3.694546
-0.143772 17.931780 -0.385523 2.603818 -10.419717 2.840925 0.000000 0.000000 0.000000 -23.302415 -0.857415 3.758487 0.205743 2.920367 8.057185 0.298816 2.590467 -11.609545 0.476830 -4.428427 -12.285075 0.000000 0.000000 0.000000 13.904948 10.872582 -4.423724 -1.963344 -8.789213 25.138174 -1.008361 3.602353 -18.114124 -0.050069 -1.444234 3.972081 -4.672081 -1.727705 -0.972788 2.874799 -2.280018 -2.012024 5.598188 -1.059943 -1.230275 -8.007688 -0.953139 -33.116441 6.490347 1.050458 1.954016 3.571679 0.971801 5.429259 0.000000 0.000000 0.000000 106.741317 -60.911189 46.104195 107.904374 -58.753398 75.440761 49.080335 32.841043 -13.463266 0.000000 0.000000 0.000000 -7.125000 0.000000 0.000000 21.533747 48.805171 -2.110781 0.000000 0.000000 0.000000 -8.112110 3.761112 23.748637 -15.862566 -25.333975 -3.586993 -17.860750 18.043482 -8.002740 0.000000 0.000000 0.000000 7.125000 0.000000 0.000000 6.513368 21.598387 3.681839
-0.144285 17.930925 -0.381420 2.647325 -10.425530 2.827591 0.000000 0.000000 0.000000 -23.350880 -0.834764 3.807465 0.202495 2.897374 7.993078 0.298218 2.585253 -11.597066 0.487002 -4.474840 -12.416451 0.000000 0.000000 0.000000 13.854090 10.864633 -4.406116 -1.964370 -8.791435 25.145097 -1.010925 3.657485 -18.129937 -0.055540 -1.520564 4.182437 -4.711058 -1.695737 -0.990482 2.837104 -2.236767 -1.996553 5.580323 -1.038916 -1.210188 -7.871782 -0.964079 -33.240466 6.350594 1.006780 2.040176 3.499709 0.940517 5.476613 0.000000 0.000000 0.000000 106.880813 -60.999998 46.236426 107.948993 -58.746988 75.478883 48.991697 32.835658 -13.538399 0.000000 0.000000 0.000000 -7.125000 0.000000 0.000000 21.462973 48.886031 -2.147621 0.000000 0.000000 0.000000 -8.068090 3.743418 23.615209 -15.870857 -25.345172 -3.590497 -17.954260 18.084595 -8.002313 0.000000 0.000000 0.000000 7.125000 0.000000 0.000000 6.445586 21.594028 3.643717
-0.144964 17.931564 -0.379143 2.679714 -10.458308 2.823881 0.000000 0.000000 0.000000 -23.386567 -0.791370 3.834206 0.199579 2.876953 7.936356 0.296707 2.594061 -11.577534 0.478920 -4.438033 -12.312437 0.000000 0.000000 0.000000 13.815927 10.873029 -4.412736 -1.966142 -8.795068 25.156501 -1.009175 3.667729 -18.112561 -0.055617 -1.521721 4.185613 -4.742319 -1.662109 -0.996393 2.807292 -2.191940 -1.996515 5.567105 -1.016064 -1.212753 -7.772880 -0.976680 -33.359348 6.241375 0.970320 2.173712 3.445245 0.914626 5.538403 0.000000 0.000000 0.000000 106.992182 -61.061012 46.341525 107.934286 -58.749123 75.466310 49.009760 32.695444 -13.453314 0.000000 0.000000 0.000000 -7.125000 0.000000 0.000000 21.453847 48.775144 -2.085808 0.000000 0.000000 0.000000 -8.041079 3.703903 23.535879 -15.823474 -25.280699 -3.570272 -18.040221 18.103556 -8.006532 0.000000 0.000000 0.000000 7.125000 0.000000 0.000000 6.383197 21.585271 3.609245
